<?xml version="1.0" standalone="no"?>
<!DOCTYPE svg PUBLIC "-//W3C//DTD SVG 20010904//EN"
 "http://www.w3.org/TR/2001/REC-SVG-20010904/DTD/svg10.dtd">
<svg version="1.0" xmlns="http://www.w3.org/2000/svg"
 width="512.000000pt" height="512.000000pt" viewBox="0 0 512.000000 512.000000"
 preserveAspectRatio="xMidYMid meet">

<g transform="translate(0.000000,512.000000) scale(0.100000,-0.100000)"
fill="#000000" stroke="none">
<path d="M1034 4816 l-39 -34 -3 -788 c-1 -433 -3 -789 -5 -790 -2 -2 -37 8
-78 23 -96 33 -224 36 -316 6 -74 -25 -195 -119 -242 -189 -105 -159 -113
-364 -21 -545 35 -68 132 -162 203 -197 103 -51 233 -60 332 -22 14 5 25 7 25
5 0 -11 120 58 159 92 52 44 157 200 173 256 9 30 14 269 18 845 l5 802 45
-41 c45 -41 190 -151 289 -219 127 -87 211 -164 255 -234 38 -61 -1 -210 -85
-326 -42 -59 -195 -234 -249 -285 -74 -71 -89 -131 -48 -191 40 -58 101 -70
158 -31 58 38 278 285 344 386 85 127 118 210 139 344 10 67 -30 216 -69 255
-8 7 -14 18 -14 24 0 11 -158 168 -170 168 -4 0 -18 10 -31 21 -13 12 -42 34
-64 48 -22 14 -56 38 -75 52 -19 14 -72 53 -117 87 -195 144 -249 216 -334
441 -15 41 -62 71 -110 71 -26 0 -46 -9 -75 -34z"/>
<path d="M4690 3399 c-44 -11 -467 -96 -575 -115 -44 -8 -107 -21 -140 -30
-33 -8 -78 -17 -100 -20 -22 -3 -76 -14 -120 -24 -44 -10 -120 -26 -170 -35
-49 -9 -103 -20 -120 -25 -16 -5 -50 -12 -75 -15 -58 -8 -180 -34 -190 -40 -4
-3 -28 -7 -52 -10 -25 -3 -73 -12 -109 -19 -101 -22 -158 -34 -249 -52 -97
-19 -143 -43 -168 -87 -16 -29 -17 -96 -20 -822 -1 -434 -5 -797 -8 -805 -5
-13 -7 -13 -17 0 -17 22 -58 38 -145 56 -230 48 -485 -78 -586 -289 -75 -157
-75 -338 0 -488 88 -174 244 -281 444 -304 79 -9 206 16 280 56 121 64 237
194 282 314 22 60 22 60 25 815 1 415 2 772 3 792 0 33 4 38 28 44 15 3 38 10
52 15 14 4 46 11 71 14 26 2 77 12 115 21 38 8 94 19 124 24 30 5 87 16 125
25 39 8 95 20 125 25 30 5 87 17 125 26 39 8 104 21 145 29 41 7 104 20 140
30 36 9 81 19 101 21 44 5 178 32 189 39 4 3 41 9 81 15 41 6 110 19 155 30
45 11 93 20 108 20 l26 0 0 -665 c0 -366 -1 -665 -3 -665 -2 0 -22 9 -46 21
-80 38 -211 53 -326 36 -86 -13 -210 -79 -279 -150 -90 -92 -131 -176 -156
-322 -15 -89 5 -208 52 -305 38 -76 127 -179 186 -214 133 -77 230 -100 368
-86 197 20 384 172 456 371 l23 64 0 1300 0 1301 -25 31 c-37 47 -92 66 -150
52z"/>
</g>
</svg>
